<svg width="14" height="9" viewBox="0 0 14 9" fill="none" xmlns="http://www.w3.org/2000/svg">
<path d="M13.6953 1.75904L7.44525 8.00904C7.32579 8.12455 7.16612 8.18912 6.99994 8.18912C6.83376 8.18912 6.67409 8.12455 6.55463 8.00904L0.304627 1.75904C0.21984 1.66867 0.16237 1.55615 0.138866 1.43448C0.115363 1.31281 0.126786 1.18698 0.171814 1.07154C0.219628 0.957785 0.300042 0.860733 0.402924 0.792609C0.505805 0.724485 0.626549 0.688338 0.749939 0.688724H13.2499C13.3733 0.688338 13.4941 0.724485 13.597 0.792609C13.6998 0.860733 13.7803 0.957785 13.8281 1.07154C13.8731 1.18698 13.8845 1.31281 13.861 1.43448C13.8375 1.55615 13.78 1.66867 13.6953 1.75904Z" fill="black"/>
</svg>
