<svg width="208" height="208" viewBox="0 0 208 208" fill="none" xmlns="http://www.w3.org/2000/svg">
<path d="M104 208C161.438 208 208 161.438 208 104C208 46.5624 161.438 0 104 0C46.5624 0 0 46.5624 0 104C0 161.438 46.5624 208 104 208Z" fill="#FF414E"/>
<path d="M69.2194 138.807C71.4207 141.009 74.1723 142 77.034 142C79.8957 142 82.6474 140.899 84.8487 138.807L104 119.539L123.151 138.697C125.353 140.899 128.104 141.89 130.966 141.89C133.828 141.89 136.579 140.789 138.781 138.697C143.073 134.403 143.073 127.466 138.781 123.172L119.519 104.014L138.671 84.8555C142.963 80.5614 142.963 73.6248 138.671 69.3307C134.378 65.0366 127.444 65.0366 123.151 69.3307L104 88.489L84.8487 69.2206C80.5561 64.9265 73.622 64.9265 69.3295 69.2206C65.0369 73.5147 65.0369 80.4513 69.3295 84.7454L88.4808 104.014L69.2194 123.172C64.9269 127.466 64.9269 134.513 69.2194 138.807Z" fill="white"/>
</svg>
